<?xml version="1.0" encoding="UTF-8" standalone="no"?>
<!DOCTYPE svg PUBLIC "-//W3C//DTD SVG 1.1//EN"
 "http://www.w3.org/Graphics/SVG/1.1/DTD/svg11.dtd">
<!-- Generated by graphviz version 2.43.0 (0)
 -->
<!-- Title: %3 Pages: 1 -->
<svg width="280pt" height="371pt"
 viewBox="0.00 0.00 280.03 371.02" xmlns="http://www.w3.org/2000/svg" xmlns:xlink="http://www.w3.org/1999/xlink">
<g id="graph0" class="graph" transform="scale(1 1) rotate(0) translate(4 367.02)">
<title>%3</title>
<polygon fill="white" stroke="transparent" points="-4,4 -4,-367.02 276.03,-367.02 276.03,4 -4,4"/>
<text text-anchor="middle" x="136.01" y="-7.8" font-family="Noto Sans" font-size="14.00">Commit F not in Node1&#39;s lineage</text>
<!-- A -->
<g id="node1" class="node">
<title>A</title>
<ellipse fill="none" stroke="black" cx="133.25" cy="-41" rx="27" ry="18"/>
<text text-anchor="middle" x="133.25" y="-37.9" font-family="Noto Sans" font-size="12.00">A</text>
</g>
<!-- B -->
<g id="node2" class="node">
<title>B</title>
<ellipse fill="none" stroke="black" cx="74.25" cy="-141.23" rx="74.49" ry="33.47"/>
<text text-anchor="middle" x="74.25" y="-151.13" font-family="Noto Sans" font-size="12.00">B</text>
<text text-anchor="middle" x="74.25" y="-138.13" font-family="Noto Sans" font-size="12.00">Node1&#39;s last</text>
<text text-anchor="middle" x="74.25" y="-125.13" font-family="Noto Sans" font-size="12.00">applied commit</text>
</g>
<!-- A&#45;&gt;B -->
<g id="edge1" class="edge">
<title>A&#45;&gt;B</title>
<path fill="none" stroke="black" d="M123.5,-58.22C116.67,-69.59 107.23,-85.32 98.43,-99.96"/>
<polygon fill="black" stroke="black" points="95.22,-98.52 93.07,-108.89 101.22,-102.12 95.22,-98.52"/>
</g>
<!-- E -->
<g id="node5" class="node">
<title>E</title>
<ellipse fill="none" stroke="black" cx="193.25" cy="-141.23" rx="27" ry="18"/>
<text text-anchor="middle" x="193.25" y="-138.13" font-family="Noto Sans" font-size="12.00">E</text>
</g>
<!-- A&#45;&gt;E -->
<g id="edge4" class="edge">
<title>A&#45;&gt;E</title>
<path fill="none" stroke="black" d="M143.15,-58.22C152.68,-73.81 167.2,-97.59 178.16,-115.54"/>
<polygon fill="black" stroke="black" points="175.32,-117.6 183.52,-124.31 181.3,-113.96 175.32,-117.6"/>
<text text-anchor="middle" x="212.25" y="-80.4" font-family="Noto Sans" font-size="12.00">&#39;Branch 1&#39; off of A</text>
</g>
<!-- C -->
<g id="node3" class="node">
<title>C</title>
<ellipse fill="none" stroke="black" cx="71.25" cy="-235.51" rx="27" ry="18"/>
<text text-anchor="middle" x="71.25" y="-232.41" font-family="Noto Sans" font-size="12.00">C</text>
</g>
<!-- B&#45;&gt;C -->
<g id="edge2" class="edge">
<title>B&#45;&gt;C</title>
<path fill="none" stroke="black" d="M73.2,-174.51C72.85,-185.23 72.46,-197.06 72.13,-207.35"/>
<polygon fill="black" stroke="black" points="68.63,-207.31 71.8,-217.42 75.63,-207.54 68.63,-207.31"/>
</g>
<!-- D -->
<g id="node4" class="node">
<title>D</title>
<ellipse fill="none" stroke="black" cx="132.25" cy="-329.79" rx="70.92" ry="33.47"/>
<text text-anchor="middle" x="132.25" y="-339.69" font-family="Noto Sans" font-size="12.00">D</text>
<text text-anchor="middle" x="132.25" y="-326.69" font-family="Noto Sans" font-size="12.00">Merge master</text>
<text text-anchor="middle" x="132.25" y="-313.69" font-family="Noto Sans" font-size="12.00">with &#39;Branch 1&#39;</text>
</g>
<!-- C&#45;&gt;D -->
<g id="edge3" class="edge">
<title>C&#45;&gt;D</title>
<path fill="none" stroke="black" d="M81.59,-252.16C88.34,-262.37 97.47,-276.18 106.12,-289.27"/>
<polygon fill="black" stroke="black" points="103.27,-291.3 111.71,-297.72 109.11,-287.44 103.27,-291.3"/>
</g>
<!-- F -->
<g id="node6" class="node">
<title>F</title>
<ellipse fill="none" stroke="black" cx="194.25" cy="-235.51" rx="77.56" ry="24.08"/>
<text text-anchor="middle" x="194.25" y="-238.91" font-family="Noto Sans" font-size="12.00">F</text>
<text text-anchor="middle" x="194.25" y="-225.91" font-family="Noto Sans" font-size="12.00">Commit to noop</text>
</g>
<!-- E&#45;&gt;F -->
<g id="edge5" class="edge">
<title>E&#45;&gt;F</title>
<path fill="none" stroke="black" d="M193.43,-159.59C193.56,-171.24 193.73,-186.96 193.88,-201"/>
<polygon fill="black" stroke="black" points="190.39,-201.35 193.99,-211.31 197.39,-201.27 190.39,-201.35"/>
</g>
<!-- F&#45;&gt;D -->
<g id="edge6" class="edge">
<title>F&#45;&gt;D</title>
<path fill="none" stroke="black" d="M178.92,-259.32C172.81,-268.41 165.6,-279.14 158.7,-289.41"/>
<polygon fill="black" stroke="black" points="155.68,-287.63 153.01,-297.88 161.49,-291.54 155.68,-287.63"/>
</g>
</g>
</svg>
